# xmcd
#
# Track frame offsets: 
#        150
#        10952
#        22702
#        32315
#        44502
#        56140
#        68262
#        79585
#        90325
#        101102
#        112210
#        124010
#        133622
#        147220
#        159135
#        170162
#        181320
#        192370
#        203067
#        217722
#        232987
#        243940
#
# Disc length: 3431 seconds
#
# Revision: 5
# Processed by: cddbd v1.5.2PL0 Copyright (c) Steve Scherf et al.
# Submitted via: ExactAudioCopy v0.95b4
#
DISCID=170d6516
DTITLE=Etta James - Tell Mama - The Complete Muscle Shoals Sessions
DYEAR=2001
DGENRE=Blues
TTITLE0=Tell Mama
TTITLE1=I'd Rather Go Blind
TTITLE2=Watch Dog
TTITLE3=The Love of My Man
TTITLE4=I'm Gonna Take What He's Got
TTITLE5=The Same Rope
TTITLE6=Security
TTITLE7=Steal Away
TTITLE8=My Mother in Law
TTITLE9=Don't Lose Your Good Thing
TTITLE10=It Hurts Me So Much
TTITLE11=Just a Little Bit
TTITLE12=(bonus track) Do Right Woman, Do Right Man (11-1967)
TTITLE13=(bonus track) You Took It (8-1968)
TTITLE14=(bonus track) I Worship The Ground You Walk On (3-1968)
TTITLE15=(bonus track) I Got You Babe (3-1968)
TTITLE16=(bonus track) You Got It (8-1968)
TTITLE17=(bonus track) I've Gone Too Far (8-1968)
TTITLE18=(bonus track) Misty (8-1968)
TTITLE19=(bonus track) Almost Persuaded (8-1968)
TTITLE20=(bonus track) Fire (8-1968)
TTITLE21=(bonus track) Do Right Woman, Do Right Man (alternate) (11-19
TTITLE21=67)
EXTD=YEAR: 1967
EXTT0=
EXTT1=
EXTT2=
EXTT3=
EXTT4=
EXTT5=
EXTT6=
EXTT7=
EXTT8=
EXTT9=
EXTT10=
EXTT11=
EXTT12=
EXTT13=
EXTT14=
EXTT15=
EXTT16=
EXTT17=
EXTT18=
EXTT19=
EXTT20=
EXTT21=
PLAYORDER=
